<?xml version="1.0" encoding="UTF-8" standalone="no"?>
<svg
   xmlns:dc="http://purl.org/dc/elements/1.1/"
   xmlns:cc="http://creativecommons.org/ns#"
   xmlns:rdf="http://www.w3.org/1999/02/22-rdf-syntax-ns#"
   xmlns:svg="http://www.w3.org/2000/svg"
   xmlns="http://www.w3.org/2000/svg"
   viewBox="0 0 5434.4668 4941.96"
   height="4941.96"
   width="5434.4668"
   xml:space="preserve"
   id="svg2"
   version="1.1"><metadata
     id="metadata8"><rdf:RDF><cc:Work
         rdf:about=""><dc:format>image/svg+xml</dc:format><dc:type
           rdf:resource="http://purl.org/dc/dcmitype/StillImage" /></cc:Work></rdf:RDF></metadata><defs
     id="defs6"><clipPath
       id="clipPath18"
       clipPathUnits="userSpaceOnUse"><path
         id="path16"
         d="M 0,3706.473 H 4075.846 V 0 H 0 Z" /></clipPath></defs><g
     transform="matrix(1.3333333,0,0,-1.3333333,0,4941.96)"
     id="g10"><g
       id="g12"><g
         clip-path="url(#clipPath18)"
         id="g14"><g
           transform="translate(1995.2375,2637.6641)"
           id="g20"><path
             id="path22"
             style="fill:#ddb476;fill-opacity:1;fill-rule:nonzero;stroke:none"
             d="m 0,0 c 0,0 2.622,-1694.846 0,-1697.468 -2.622,-2.621 -237.695,46.183 -237.695,46.183 0,0 -37.123,53.148 -41.006,67.981 -3.882,14.833 -70.934,372.14 -70.934,372.14 0,0 -141.913,211.826 -171.747,343.098 -29.835,131.272 -65.636,492.365 -65.636,492.365 l -35.802,211.731 114.811,114.329 122.502,124.579 206.074,92.256 z" /></g><g
           transform="translate(1600.6804,2120.2529)"
           id="g24"><path
             id="path26"
             style="fill:#fffeff;fill-opacity:1;fill-rule:nonzero;stroke:none"
             d="m 0,0 c 37.674,-30.724 65.673,-54.047 133.835,-45.992 68.162,8.055 103.495,45.108 98.716,79.745 l -53.914,24.005 c 0,0 -45.108,2.257 -49.941,0 C 123.863,55.501 98.892,55.461 90.032,49.44 81.171,43.419 7.813,27.077 9.05,23.568 10.287,20.059 0,0 0,0" /></g><g
           transform="translate(1710.7473,2159.356)"
           id="g28"><path
             id="path30"
             style="fill:#7a86ae;fill-opacity:1;fill-rule:nonzero;stroke:none"
             d="M 0,0 C 7.93,-6.628 18.228,-10.309 28.349,-10.704 40.657,-11.183 52.612,-6.794 59.663,2.841 66.048,2.442 72.485,1.86 78.981,1.133 72.377,-17.511 53.642,-33.911 23.015,-33.911 c -26.54,0 -45.268,14.89 -54.46,25.5 C -20.988,-4.632 -10.522,-1.895 0,0" /></g><g
           transform="translate(2392.5657,1401.0654)"
           id="g32"><path
             id="path34"
             style="fill:#c22e60;fill-opacity:1;fill-rule:nonzero;stroke:none"
             d="m 0,0 c 2.081,-5.162 65.795,-360.923 65.795,-360.923 l 12.276,-72.072 79.699,8.853 c 0,0 144.107,34.495 144.107,37.804 0,3.309 83.277,69.93 84.317,77.217 1.041,7.286 110.843,210.273 97.58,223.806 C 470.513,-71.783 416.383,0 416.383,0 c 0,0 -41.73,119.605 -135.37,138.937 -93.641,19.332 -155.094,16.209 -160.281,13.085 C 115.546,148.9 6.907,86.901 6.907,86.901 Z" /></g><g
           transform="translate(2408.9534,1403.8926)"
           id="g36"><path
             id="path38"
             style="fill:#fcffe4;fill-opacity:1;fill-rule:nonzero;stroke:none"
             d="m 0,0 c 73.311,78.175 146.032,132.996 280.288,53.562 134.256,-79.435 109.643,-260.693 109.643,-260.693 0,0 67.128,71.615 64.889,80.566 -2.237,8.951 13.535,91.742 0.055,93.979 -13.48,2.237 -71.657,128.708 -152.211,158.333 -80.554,29.625 -222.641,17.878 -222.641,13.683 0,-4.197 -54.821,-27.692 -58.177,-31.048 C 18.49,105.026 -9.48,52.442 -9.48,52.442 Z" /></g><g
           transform="translate(2856.6741,2015.9429)"
           id="g40"><path
             id="path42"
             style="fill:#c1417e;fill-opacity:1;fill-rule:nonzero;stroke:none"
             d="M 0,0 C 34.17,12.965 41.95,28.524 41.95,28.524 35.468,-312.468 47.136,-539.365 6.943,-622.344 -92.892,-465.461 -101.697,-464.073 -234.702,-429.58 -136.974,-377.296 50.105,-254.124 0,0" /></g><g
           transform="translate(2867.967,2394.1587)"
           id="g44"><path
             id="path46"
             style="fill:#c1417e;fill-opacity:1;fill-rule:nonzero;stroke:none"
             d="m 0,0 c 9.034,152.449 -33.878,357.973 -213.429,464.123 0,0 0,64.367 -7.905,105.021 216.816,-57.593 420.082,-201.008 420.082,-201.008 0,0 -18.067,-33.877 -25.973,-68.884 C 164.87,264.245 95.986,59.851 49.687,-117.442 49.687,-117.442 47.428,-85.823 0,0" /></g><g
           transform="translate(1488.0623,1057.3066)"
           id="g48"><path
             id="path50"
             style="fill:#98b9e2;fill-opacity:1;fill-rule:nonzero;stroke:none"
             d="m 0,0 c 0,0 -1.876,100.723 0,129.501 1.877,28.777 -6.882,55.053 62.561,62.56 69.441,7.507 98.219,3.753 98.219,3.753 C 170.791,113.235 178.298,61.31 178.298,61.31 L 73.821,148.269 C 162.032,8.759 224.592,-60.058 224.592,-60.058 224.592,-60.058 76.324,-36.91 0,0" /></g><g
           transform="translate(2408.9534,1301.418)"
           id="g52"><path
             id="path54"
             style="fill:#822e62;fill-opacity:1;fill-rule:nonzero;stroke:none"
             d="M 0,0 C 76.667,85.552 218.755,71.007 264.625,-40.872 204.21,-130.376 30.654,-261.275 30.654,-261.275 L -9.48,-79.071 Z" /></g><g
           transform="translate(1995.2375,2637.6641)"
           id="g56"><path
             id="path58"
             style="fill:#f8e8cf;fill-opacity:1;fill-rule:nonzero;stroke:none"
             d="m 0,0 v -1440.902 -295.35 l 473.994,58.913 -20.859,82.055 c 0,0 -59.153,240.514 -67.09,319.976 -7.938,79.461 0,125.611 0,125.611 0,0 110.499,282.693 148.796,430.376 38.297,147.684 38.297,225.478 38.297,225.478 0,0 46.681,269.616 46.294,300.118 -0.387,30.501 -47.449,271.229 -46.294,279.527 1.155,8.297 -5.495,200.73 -30.14,191.78 -24.645,-8.95 -294.287,-60.415 -294.287,-60.415 z" /></g><g
           transform="translate(2115.9348,2138.7012)"
           id="g60"><path
             id="path62"
             style="fill:#fffeff;fill-opacity:1;fill-rule:nonzero;stroke:none"
             d="M 0,0 C 44.152,-32.051 108.345,-43.724 155.394,-28.752 202.441,-13.781 252.672,69.149 241.379,84.02 230.085,98.891 174.428,96.127 161.733,97.137 149.039,98.147 73.966,84.764 73.966,84.764 L 41.969,77.084 Z" /></g><g
           transform="translate(2222.2522,2162.1968)"
           id="g64"><path
             id="path66"
             style="fill:#74bde8;fill-opacity:1;fill-rule:nonzero;stroke:none"
             d="m 0,0 c -22.169,0 -41.424,8.165 -53.766,21.601 6.862,4.791 14.681,8.922 24.107,12.095 14.941,-15.001 45.036,-14.054 52.794,6.933 8.411,0.144 17.091,0.276 25.941,0.482 C 45.327,19.78 24.119,0 0,0" /></g><g
           transform="translate(2690.3606,2557.231)"
           id="g68"><path
             id="path70"
             style="fill:#fef37d;fill-opacity:1;fill-rule:nonzero;stroke:none"
             d="m 0,0 c -40.276,37.293 -42.515,117.847 -32.072,246.881 0,0 27.754,-12.52 72.62,-72.485 44.866,-59.965 85.503,-201.993 86.249,-277.325 0,0 -20.885,21.63 -70.858,37.293 0,0 48.482,-32.818 93.234,-122.322 44.752,-89.503 47.735,-242.406 14.171,-310.279 0,0 -30.445,95.656 -93.979,154.394 40.277,-89.504 82.045,-281.937 23.867,-387.104 -58.176,-105.167 -147.68,-196.908 -305.057,-227.489 0,0 17.9,33.564 25.359,65.637 56.165,-24.944 117.101,-7.459 158.868,38.039 41.77,45.497 28.344,137.984 2.985,175.278 0,0 8.204,24.613 -17.156,107.404 -25.359,82.791 -70.111,151.411 -152.156,230.473 -82.045,79.061 -88.758,172.294 -76.824,234.946 11.934,62.653 41.022,208.843 33.563,314.01 -7.458,105.167 -115.608,321.467 -296.853,286.411 -181.245,-35.055 -225.251,-225.996 -222.268,-311.771 0,0 -23.868,53.702 -34.31,121.576 2.238,199.891 73.841,316.246 194.671,377.408 120.83,61.16 274.478,72.348 369.949,-30.581 C -130.526,547.465 -90.25,382.628 -92.487,267.02 -94.725,151.411 -75.333,32.818 0,0" /></g><g
           transform="translate(2647.8411,1774.0498)"
           id="g72"><path
             id="path74"
             style="fill:#fffeff;fill-opacity:1;fill-rule:nonzero;stroke:none"
             d="m 0,0 c -26.692,-87.5 -78.629,-86.492 -134.543,-69.965 9.61,20.897 39.314,180.047 39.314,180.047 C -60.282,116.197 26.693,87.5 0,0" /></g><g
           transform="translate(2401.7112,2702.6748)"
           id="g76"><path
             id="path78"
             style="fill:#fef37d;fill-opacity:1;fill-rule:nonzero;stroke:none"
             d="M 0,0 C -100.692,67.128 -284.175,40.276 -412.479,-26.851 -437.853,98.454 -398.292,306.55 -219.284,313.263 -40.277,319.976 17.9,85.029 0,0" /></g><g
           transform="translate(1995.2375,2637.6641)"
           id="g80"><path
             id="path82"
             style="fill:#e1a293;fill-opacity:1;fill-rule:nonzero;stroke:none"
             d="m 0,0 c 164.813,31.447 358.896,-49.106 396.11,-125.185 l 13.452,66.085 30.475,82.995 c 0,0 -79.434,67.321 -210.054,61.907 C 99.364,80.387 0,0 0,0" /></g><g
           transform="translate(1996.76,2679.6797)"
           id="g84"><path
             id="path86"
             style="fill:#e0ae67;fill-opacity:1;fill-rule:nonzero;stroke:none"
             d="m 0,0 c 82.44,175.312 188.607,219.856 274.568,224.869 -72.232,-33.571 -93.014,-65.543 -93.014,-65.543 79.93,-22.381 91.851,-97.027 93.014,-115.54 L 344.612,32.922 414.4,0 c 0,0 19.097,178.509 -58.117,260.038 C 279.069,341.567 153.687,392.728 65.272,311.194 -23.144,229.66 -50.245,74.373 -40.653,32.922 c 9.591,-41.451 26.168,-59.245 26.168,-59.245 z" /></g><g
           transform="translate(2199.1243,3275.8633)"
           id="g88"><path
             id="path90"
             style="fill:#fcffe4;fill-opacity:1;fill-rule:nonzero;stroke:none"
             d="m 0,0 c -222.151,-58.677 -244.846,-273.799 -244.846,-273.799 105.738,169.452 260.041,177.445 260.041,177.445 -199.064,-78.332 -271.373,-278.158 -267.191,-396.456 4.183,-118.297 -0.17,-121.494 -0.17,-121.494 0,0 -46.154,39.086 -61.666,61.907 -15.511,22.819 -63.469,94.757 -57.075,112.342 6.395,17.584 28.776,43.162 33.571,63.944 4.796,20.782 57.55,182.242 59.149,195.031 1.599,12.789 100.04,140.678 100.04,140.678 L -46.965,8.802 Z" /></g><g
           transform="translate(2685.0745,1792.8076)"
           id="g92"><path
             id="path94"
             style="fill:#e0ae67;fill-opacity:1;fill-rule:nonzero;stroke:none"
             d="M 0,0 C 108.705,90.374 86.325,332.219 0,471.299 -86.325,610.378 -85.284,660.932 -85.284,660.932 57.55,569.811 103.91,457.908 103.91,457.908 67.142,600.185 -44.762,748.855 -116.699,841.575 c -71.938,92.72 -63.333,236.595 -85.22,398.055 -21.887,161.46 -82.635,232.692 -141.783,252.228 0,0 126.757,5.148 196.863,-143.523 70.106,-148.67 108.398,-319.722 108.398,-319.722 0,0 108.78,-47.959 153.541,-158.263 44.761,-110.304 35.17,-237.683 35.17,-237.683 0,0 86.989,-145.547 75.134,-263.278 C 213.55,251.659 149.916,219.715 149.916,219.715 142.276,37.473 129.487,-14.151 17.585,-107.436 -94.318,-200.721 -239.792,-231.547 -239.792,-231.547 l 14.388,53.207 12.789,54.033 26.795,4.881 c 0,0 62.811,-21.015 122.717,11.99 C -3.197,-74.43 0,0 0,0" /></g><g
           transform="translate(2577.0754,2024.7905)"
           id="g96"><path
             id="path98"
             style="fill:#e0ae67;fill-opacity:1;fill-rule:nonzero;stroke:none"
             d="m 0,0 c 34.946,-34.073 60.282,-119.691 60.282,-119.691 0,0 -29.705,13.105 -75.135,13.105 0,0 17.473,62.029 14.853,106.586" /></g><g
           transform="translate(1437.4631,1195.376)"
           id="g100"><path
             id="path102"
             style="fill:#6ba49d;fill-opacity:1;fill-rule:nonzero;stroke:none"
             d="m 0,0 c -6.837,-78.627 -6.795,-121.806 -6.795,-121.806 -35.821,9.387 -61.576,22.668 -61.576,22.668 0,0 -150.416,215.368 -167.508,369.202 -17.093,153.835 -9.004,591.894 -41.023,806.778 -32.019,214.884 -136.742,485.433 -136.742,485.433 150.416,126.486 516.201,273.484 861.474,300.832 l -10.256,-41.023 c -229.042,-30.766 -345.273,-58.115 -451.248,-126.485 -105.975,-68.371 -71.789,-78.627 -88.882,-150.416 -17.093,-71.79 -23.93,-85.464 -44.441,-112.812 -20.511,-27.349 -123.068,-85.464 -95.719,-215.369 27.348,-129.905 41.022,-177.764 61.533,-211.95 C -211.95,940.1 -211.95,803.358 -153.834,714.476 -95.719,625.594 -3.418,584.571 10.256,584.571 27.349,492.271 75.208,341.854 191.439,211.949 L 208.532,102.556 C 54.697,123.067 6.837,78.626 0,0" /></g><g
           transform="translate(3229.137,1380.001)"
           id="g104"><path
             id="path106"
             style="fill:#dfb85b;fill-opacity:1;fill-rule:nonzero;stroke:none"
             d="m 0,0 -3.394,-65.454 -62.061,6.303 c -191.03,-130.911 -338.91,-197.334 -375.759,-211.395 53.818,67.879 150.788,234.667 160.485,402.91 9.698,168.243 10.667,413.578 12.122,450.427 1.455,36.849 12.702,237.125 28.606,332.123 17.939,107.151 35.338,200.749 64.485,278.789 30.061,80.485 44.121,156.122 48.97,175.516 4.849,19.394 1.94,43.636 -31.516,70.303 -33.454,26.666 -167.542,105.941 -270.061,143.516 -107.152,39.273 -170.183,58.182 -170.183,58.182 -20.363,53.818 -63.515,199.274 -169.213,259.395 -105.697,60.121 -210.424,81.94 -340.365,31.031 -129.939,-50.91 -188.122,-138.183 -217.213,-206.547 -161.455,-2.424 -394.787,-53.454 -603.319,-135.499 -208.531,-82.045 -297.413,-143.579 -311.087,-164.09 -13.674,-20.511 -27.349,-23.93 13.674,-146.998 41.023,-123.067 109.393,-358.947 119.649,-536.711 10.256,-177.765 -6.837,-516.2 23.93,-663.198 30.767,-146.998 102.556,-293.996 119.649,-317.925 -136.742,58.115 -389.714,249.553 -434.155,304.251 75.208,20.51 41.022,3.418 64.952,17.092 23.93,13.674 44.441,27.348 17.093,75.208 -27.349,47.86 -30.767,157.253 3.419,225.625 34.185,68.371 68.37,95.719 95.719,109.393 27.348,13.674 34.185,75.208 34.185,112.812 0,37.604 -6.837,208.531 -27.348,362.366 -20.512,153.834 -109.394,396.551 -126.486,427.318 -17.093,30.767 -23.93,44.441 -23.93,68.371 0,23.929 23.93,34.185 41.022,58.115 17.093,23.93 85.464,126.486 109.394,170.927 23.93,44.442 71.789,116.231 71.789,116.231 17.093,-64.952 51.279,-157.253 153.835,-167.509 102.556,-10.255 170.927,23.93 208.531,75.208 37.604,51.278 64.953,160.672 64.953,160.672 0,0 191.438,133.323 252.972,167.509 61.534,34.185 61.534,41.022 160.672,58.115 99.137,17.093 191.438,10.256 259.809,-3.419 68.371,-13.674 88.882,-34.185 153.834,-78.626 64.953,-44.441 177.765,-123.068 215.369,-143.579 20.511,-61.534 27.348,-126.487 85.463,-174.346 58.115,-47.86 132.361,-98.331 239.299,-51.278 85.464,37.604 102.557,160.672 102.557,160.672 47.859,-71.79 89.835,-140.525 117.47,-188.041 27.637,-47.515 73.213,-103.273 84.365,-118.303 11.151,-15.031 36.848,-33.94 18.909,-64.001 -17.94,-30.061 -86.788,-208.485 -119.274,-355.88 -32.484,-147.394 -54.787,-355.395 -55.272,-444.608 -1.455,-67.394 2.424,-94.546 6.303,-112.97 3.879,-18.424 10.667,-31.516 40.243,-43.637 29.575,-12.121 73.696,-61.091 94.546,-117.334 20.847,-56.242 15.999,-144.97 7.757,-174.061 -8.243,-29.091 -26.182,-57.698 -23.273,-74.182 2.909,-16.485 0,-27.637 39.758,-37.334 39.758,-9.696 72.242,-25.697 90.667,-34.424 z" /></g><g
           transform="translate(1197.8928,1147.9951)"
           id="g108"><path
             id="path110"
             style="fill:#eeeca3;fill-opacity:1;fill-rule:nonzero;stroke:none"
             d="m 0,0 c -3.031,0 -5.964,1.626 -7.498,4.483 -35.323,65.847 -65.512,141.1 -89.727,223.67 -19.344,65.962 -34.945,136.728 -46.37,210.331 -14.612,94.144 -18.584,169.212 -19.658,201.121 -38.707,-31.56 -60.629,-75.335 -65.224,-130.359 -4.635,-55.489 9.321,-108.78 21.846,-143.714 15.664,-43.693 35.314,-75.662 46.942,-86.876 2.114,-2.038 3.026,-5.024 2.412,-7.897 -0.615,-2.872 -2.669,-5.224 -5.433,-6.219 -44.324,-15.956 -78.943,-43.009 -102.899,-80.407 -17.966,-28.048 -22.868,-51.747 -22.916,-51.984 -0.922,-4.596 -5.39,-7.586 -9.993,-6.67 -4.598,0.915 -7.589,5.372 -6.683,9.971 0.21,1.07 5.381,26.533 24.846,57.177 16.718,26.318 47.443,61.322 100.383,83.44 -30.157,38.984 -73.32,140.328 -65.446,234.594 2.567,30.742 10.349,58.727 23.129,83.177 14.448,27.64 35.421,51.003 62.339,69.44 2.596,1.781 5.963,1.976 8.75,0.515 2.788,-1.462 4.539,-4.344 4.553,-7.491 0.004,-0.9 0.61,-91.39 19.9,-215.522 C -108.979,326.435 -71.267,159.316 7.483,12.521 9.702,8.384 8.147,3.23 4.011,1.012 2.732,0.326 1.356,0 0,0" /></g><g
           transform="translate(1076.4075,3043.5376)"
           id="g112"><path
             id="path114"
             style="fill:#eeeca3;fill-opacity:1;fill-rule:nonzero;stroke:none"
             d="m 0,0 c -31.685,-42.444 -60.237,-104.827 -75.033,-139.791 47.333,30.208 113.7,60.701 142,73.247 C 49.771,-53.236 18.195,-26.892 0,0 m -93.633,-171.518 c -1.781,0 -3.562,0.558 -5.068,1.676 -3.048,2.263 -4.226,6.275 -2.884,9.828 1.818,4.812 45.11,118.573 95.922,180.358 1.81,2.202 4.603,3.347 7.439,3.056 2.836,-0.293 5.335,-1.988 6.657,-4.514 19.516,-37.295 79.644,-79.996 80.249,-80.423 2.519,-1.777 3.878,-4.78 3.552,-7.845 -0.327,-3.066 -2.287,-5.715 -5.123,-6.922 -1.208,-0.514 -121.386,-51.875 -175.569,-93.457 -1.525,-1.171 -3.35,-1.757 -5.175,-1.757" /></g><g
           transform="translate(2886.2668,1147.9951)"
           id="g116"><path
             id="path118"
             style="fill:#eeeca3;fill-opacity:1;fill-rule:nonzero;stroke:none"
             d="m 0,0 c -1.355,0 -2.731,0.325 -4.011,1.012 -4.136,2.218 -5.69,7.372 -3.471,11.509 78.802,146.893 116.516,314.137 134.278,428.571 19.259,124.074 19.848,214.311 19.851,215.209 0.013,3.147 1.765,6.03 4.552,7.492 2.79,1.462 6.155,1.264 8.752,-0.515 26.917,-18.437 47.891,-41.8 62.338,-69.44 12.78,-24.45 20.562,-52.435 23.13,-83.178 7.873,-94.265 -35.289,-195.609 -65.446,-234.593 52.939,-22.118 83.665,-57.122 100.382,-83.44 19.466,-30.644 24.636,-56.107 24.847,-57.177 0.907,-4.605 -2.091,-9.075 -6.697,-9.982 -4.604,-0.909 -9.075,2.09 -9.983,6.697 -0.043,0.221 -4.947,23.92 -22.913,51.968 -23.955,37.398 -58.575,64.451 -102.898,80.407 -2.764,0.995 -4.818,3.347 -5.433,6.219 -0.615,2.873 0.297,5.859 2.411,7.897 11.628,11.214 31.279,43.183 46.943,86.876 12.524,34.934 26.48,88.224 21.846,143.713 -4.596,55.025 -26.517,98.8 -65.225,130.36 C 162.18,607.696 158.208,532.628 143.596,438.484 132.171,364.881 116.569,294.115 97.226,228.153 73.011,145.583 42.821,70.33 7.498,4.483 5.965,1.626 3.031,0 0,0" /></g><g
           transform="translate(2940.7864,2976.9927)"
           id="g120"><path
             id="path122"
             style="fill:#eeeca3;fill-opacity:1;fill-rule:nonzero;stroke:none"
             d="M 0,0 C 28.297,-12.544 94.664,-43.038 141.995,-73.244 127.194,-38.271 98.636,24.12 66.967,66.545 48.771,39.652 17.196,13.309 0,0 m 160.6,-104.973 c -1.826,0 -3.65,0.586 -5.175,1.757 -54.185,41.582 -174.362,92.943 -175.569,93.457 -2.836,1.207 -4.796,3.856 -5.123,6.922 -0.327,3.065 1.034,6.067 3.552,7.845 0.605,0.427 60.733,43.128 80.248,80.423 1.321,2.526 3.821,4.221 6.656,4.514 2.834,0.292 5.63,-0.854 7.441,-3.056 50.811,-61.785 94.103,-175.546 95.921,-180.358 1.343,-3.553 0.165,-7.565 -2.884,-9.828 -1.505,-1.118 -3.287,-1.676 -5.067,-1.676" /></g><g
           transform="translate(1544.8035,3096.0542)"
           id="g124"><path
             id="path126"
             style="fill:#eeeca3;fill-opacity:1;fill-rule:nonzero;stroke:none"
             d="m 0,0 c -2.796,0 -5.465,1.384 -7.064,3.775 -1.953,2.919 -1.909,6.737 0.109,9.611 0.383,0.548 38.672,56.214 20.936,107.596 -1.357,3.933 0.332,8.27 3.991,10.249 154.406,83.532 229.749,176.888 230.492,177.821 1.14,1.432 2.714,2.461 4.484,2.927 216.086,57.004 359.811,31.277 488.504,0.042 1.548,-0.376 2.96,-1.18 4.074,-2.319 54.369,-55.634 124.69,-100.627 125.394,-101.076 3.96,-2.52 5.128,-7.773 2.608,-11.734 -2.521,-3.96 -7.775,-5.127 -11.735,-2.608 -2.912,1.853 -71.273,45.6 -126.709,101.788 -125.447,30.333 -265.688,54.91 -475.146,0.167 -5.633,-6.737 -24.139,-27.975 -56.472,-56.777 C 168.862,208.638 111.341,163.15 32.165,119.609 42.525,80.788 28.104,42.508 17.167,21.058 l 395.742,88.676 c 4.58,1.027 9.126,-1.854 10.153,-6.436 1.026,-4.58 -1.855,-9.126 -6.437,-10.152 L 1.859,0.206 C 1.24,0.067 0.617,0 0,0" /></g><g
           transform="translate(1989.2429,3207.4243)"
           id="g128"><path
             id="path130"
             style="fill:#eeeca3;fill-opacity:1;fill-rule:nonzero;stroke:none"
             d="m 0,0 c -0.321,0 -0.645,0.018 -0.971,0.055 -2.041,0.231 -206.551,22.983 -420.696,3.864 -4.682,-0.411 -8.805,3.035 -9.223,7.71 -0.417,4.676 3.035,8.805 7.711,9.223 C -207.255,40.129 -1.106,17.18 0.951,16.946 5.615,16.415 8.966,12.204 8.435,7.54 7.942,3.202 4.264,0 0,0" /></g><g
           transform="translate(1996.7683,3213.231)"
           id="g132"><path
             id="path134"
             style="fill:#eeeca3;fill-opacity:1;fill-rule:nonzero;stroke:none"
             d="m 0,0 c -2.827,0 -5.591,1.409 -7.206,3.979 -0.19,0.304 -19.584,30.945 -53.076,67.715 -30.729,33.736 -79.979,79.712 -140.096,107.158 -4.271,1.949 -6.153,6.992 -4.203,11.262 1.95,4.27 6.992,6.151 11.262,4.202 C -130.465,165.622 -79.31,117.871 -47.463,82.866 -13.033,45.021 6.38,14.311 7.189,13.022 9.687,9.047 8.488,3.8 4.513,1.303 3.108,0.421 1.544,0 0,0" /></g><g
           transform="translate(2152.1516,3286.4224)"
           id="g136"><path
             id="path138"
             style="fill:#eeeca3;fill-opacity:1;fill-rule:nonzero;stroke:none"
             d="m 0,0 c -1.647,0 -3.312,0.478 -4.775,1.475 -3.878,2.641 -4.884,7.922 -2.246,11.802 1.849,2.719 46.211,67.05 127.547,107.718 4.201,2.101 9.305,0.398 11.405,-3.801 2.099,-4.199 0.397,-9.305 -3.801,-11.404 C 50.914,67.183 7.463,4.343 7.033,3.713 5.388,1.3 2.717,0 0,0" /></g><g
           transform="translate(1419.4075,2000.0703)"
           id="g140"><path
             id="path142"
             style="fill:#dcb477;fill-opacity:1;fill-rule:nonzero;stroke:none"
             d="m 0,0 v 56.686 c -76.079,85.774 -114.118,111.879 -120.83,119.338 -6.713,7.459 -26.852,-5.221 -21.63,-67.128 5.221,-61.907 20.138,-162.598 79.061,-214.809 58.923,-52.21 80.554,-62.652 80.554,-62.652 -3.73,26.851 -6.713,34.31 -6.713,34.31 C -61.907,-88.758 -58.923,4.687 -58.923,4.687 -102.184,34.31 -98.455,58.177 -98.455,58.177 -23.868,37.293 0,0 0,0" /></g><g
           transform="translate(1313.3342,2178.0107)"
           id="g144"><path
             id="path146"
             style="fill:#fcf1c4;fill-opacity:1;fill-rule:nonzero;stroke:none"
             d="m 0,0 c -21.295,-53.959 -13.593,-185.485 20.842,-240.182 34.435,-54.696 44.404,-76.573 44.404,-76.573 0,0 -36.248,24.921 -45.31,31.264 -9.062,6.343 -75.214,74.307 -75.667,86.541 -0.453,12.233 4.531,149.068 4.531,149.068 L -53.918,0 -10.421,18.989 Z" /></g><g
           transform="translate(1693.9343,2643.9746)"
           id="g148"><path
             id="path150"
             style="fill:#d08f59;fill-opacity:1;fill-rule:nonzero;stroke:none"
             d="m 0,0 c 175.847,-65.543 287.078,-12.81 287.078,-12.81 0,0 -139.079,78.353 -143.539,79.952 -4.46,1.598 -170.62,54.353 -170.62,54.353 l -132.78,-35.17 z" /></g><g
           transform="translate(1603.4099,2320.1577)"
           id="g152"><path
             id="path154"
             style="fill:#d08f59;fill-opacity:1;fill-rule:nonzero;stroke:none"
             d="M 0,0 C 95.457,22.451 151.271,-73.618 221.61,-84.319 291.95,-95.02 323.858,-24.681 281.527,-8.695 239.195,7.292 27.021,40.862 27.021,40.862 l -38.808,-6.394 z" /></g><g
           transform="translate(1712.7678,2653.3569)"
           id="g156"><path
             id="path158"
             style="fill:#fcf1c4;fill-opacity:1;fill-rule:nonzero;stroke:none"
             d="m 0,0 c -3.101,-1.828 -6.22,-3.753 -9.354,-5.771 -100.521,-64.735 -215.86,-224.55 -209.751,-302.795 6.298,-80.684 10.978,-139.947 10.978,-139.947 106.649,31.484 177.359,30.994 177.359,30.994 0,0 -146.229,-72.005 -177.359,-100.822 21.649,-121.448 18.997,-229.854 35.845,-299.084 42.313,-173.868 89.945,-188.627 89.945,-188.627 -45.82,0.362 -78.77,35.341 -78.77,35.341 76.122,-153.147 182.855,-295.154 182.855,-295.154 0,0 -283.547,202.613 -279.96,443.261 3.587,240.648 -41.178,474.278 -41.178,489.405 0,15.126 -32.985,168.272 -25.917,172.985 7.068,4.712 117.18,61.258 117.18,61.258 l 66.595,51.834" /></g><g
           transform="translate(1573.801,1987.3906)"
           id="g160"><path
             id="path162"
             style="fill:#fcf1c4;fill-opacity:1;fill-rule:nonzero;stroke:none"
             d="m 0,0 c -29.202,-37.791 54.568,-93.059 100.379,-102.469 45.81,-9.411 87.579,20.424 77.137,63.684 C 167.074,4.475 25.359,32.818 0,0" /></g><g
           transform="translate(2487.2327,2292.6357)"
           id="g164"><path
             id="path166"
             style="fill:#fcffe4;fill-opacity:1;fill-rule:nonzero;stroke:none"
             d="m 0,0 c -74.296,110.22 -10.45,292.579 -31.512,412.232 -0.459,2.604 -0.966,5.183 -1.525,7.734 L -82.433,109.948 C -74.956,6.038 20.396,-134.64 51.003,-162.301 81.609,-189.962 165.62,-387.537 165.62,-387.537 186.152,-188.025 75.914,-112.619 0,0" /></g><g
           transform="translate(2115.9348,2328.6255)"
           id="g168"><path
             id="path170"
             style="fill:#e1a293;fill-opacity:1;fill-rule:nonzero;stroke:none"
             d="m 0,0 c -46.377,-66.673 -36.298,-150.615 -36.298,-150.615 45.923,61.374 46.387,97.396 85.32,114.625 38.935,17.229 73.721,16.197 98.158,15.644 24.435,-0.552 79.856,-54.961 79.856,-54.961 h 55.951 c 0,0 12.069,19.025 10.032,23.398 -2.039,4.373 -26.996,63.035 -20.912,68.074 6.085,5.039 0,57.793 0,57.793 l -6.759,22.892 -47.328,36.257 -90.006,-6.329 c 0,0 -41.598,-12.893 -44.825,-13.673 C 79.964,112.325 0,0 0,0" /></g><g
           transform="translate(2000.4358,2552.7559)"
           id="g172"><path
             id="path174"
             style="fill:#f8e8cf;fill-opacity:1;fill-rule:nonzero;stroke:none"
             d="M 0,0 V -137.162 C 166.527,-69.956 155.886,44.752 0,0" /></g><g
           transform="translate(2381.2825,2519.1802)"
           id="g176"><path
             id="path178"
             style="fill:#fef37f;fill-opacity:1;fill-rule:nonzero;stroke:none"
             d="m 0,0 c -4.902,-26.835 -9.656,-55.198 -13.045,-83.41 -9.705,3.865 -22.002,8.866 -37.011,15.175 -42.559,17.89 -99.573,15.104 -147.122,-33.004 -44.94,-45.469 -108.523,-125.305 -108.523,-125.305 0,0 -2.237,8.391 5.034,32.444 7.273,24.055 21.258,55.94 59.856,103.489 38.599,47.549 117.474,101.252 172.855,109.083 C -38.174,22.684 -15.037,11.364 0,0" /></g><g
           transform="translate(2378.259,2046.6313)"
           id="g180"><path
             id="path182"
             style="fill:#f8e8cf;fill-opacity:1;fill-rule:nonzero;stroke:none"
             d="m 0,0 c 29.201,-37.791 -54.569,-93.059 -100.379,-102.469 -45.81,-9.411 -87.579,20.424 -77.138,63.684 C -167.074,4.475 -25.359,32.818 0,0" /></g><g
           transform="translate(2031.1223,1883.1816)"
           id="g184"><path
             id="path186"
             style="fill:#fcf1c4;fill-opacity:1;fill-rule:nonzero;stroke:none"
             d="m 0,0 c 0,-19.419 -15.743,-35.162 -35.162,-35.162 -19.419,0 -35.161,15.743 -35.161,35.162 0,19.419 15.742,35.162 35.161,35.162 C -15.743,35.162 0,19.419 0,0" /></g><g
           transform="translate(1995.9607,1681.5859)"
           id="g188"><path
             id="path190"
             style="fill:#bd3160;fill-opacity:1;fill-rule:nonzero;stroke:none"
             d="M 0,0 C 52.866,41.587 94.43,7.97 164.768,0 235.108,-7.97 304.167,42.646 337.994,66.219 302.25,-44.737 226.891,-149.81 0,-137.239 Z" /></g><g
           transform="translate(1734.5154,1603.9102)"
           id="g192"><path
             id="path194"
             style="fill:#d08f59;fill-opacity:1;fill-rule:nonzero;stroke:none"
             d="M 0,0 C 106.491,-53.387 141.471,-59.563 261.445,-59.563 V 20.99 H 96.892 Z" /></g><g
           transform="translate(1995.9607,1544.3467)"
           id="g196"><path
             id="path198"
             style="fill:#fcf1c4;fill-opacity:1;fill-rule:nonzero;stroke:none"
             d="M 0,0 C -37.293,5.967 -89.504,-14.707 -89.504,-14.707 -34.31,-41.768 0,-43.968 0,-43.968 Z" /></g><g
           transform="translate(1478.3303,1186.8008)"
           id="g200"><path
             id="path202"
             style="fill:#c5e1f6;fill-opacity:1;fill-rule:nonzero;stroke:none"
             d="M 0,0 C 99.946,-97.431 171.549,-203.344 167.074,-200.36 162.599,-197.377 0,-161.575 0,-161.575 c 0,0 -40.399,28.343 -38.1,34.309" /></g><g
           transform="translate(1734.5154,1125.6543)"
           id="g204"><path
             id="path206"
             style="fill:#cd9051;fill-opacity:1;fill-rule:nonzero;stroke:none"
             d="m 0,0 c 136.14,-137.723 246.497,-185.458 246.497,-185.458 l 14.948,20.129 V 71.107 L -25.314,230.821 C -52.516,223.185 0,0 0,0" /></g><g
           transform="translate(1722.9739,1326.5547)"
           id="g208"><path
             id="path210"
             style="fill:#fcf1c4;fill-opacity:1;fill-rule:nonzero;stroke:none"
             d="m 0,0 c 41.769,-177.516 43.246,-311.827 43.246,-311.827 l -84.22,67.183 -8.253,201.384 -6.893,95.47 C -40.276,53.702 0,0 0,0" /></g><g
           transform="translate(1746.2971,1612.4561)"
           id="g212"><path
             id="path214"
             style="fill:#fcf1c4;fill-opacity:1;fill-rule:nonzero;stroke:none"
             d="M 0,0 C 97.422,6.478 142.259,97.473 249.664,69.13 V 12.444 c 0,0 -74.367,5.967 -111.024,-4.475 C 101.982,-2.473 41.146,-18.502 0,0" /></g><g
           transform="translate(2477.2542,2162.1968)"
           id="g216"><path
             id="path218"
             style="fill:#e1a293;fill-opacity:1;fill-rule:nonzero;stroke:none"
             d="m 0,0 c 11.19,-158.986 -59.148,-239.007 -57.55,-369.389 l 36.467,55.212 c -20.48,-116.854 -54.052,-192.192 -135.581,-318.38 -81.529,-126.19 -155.633,-241.289 -155.633,-241.289 l -168.996,-113.502 v -214.524 c 0,0 147.184,88.234 255.889,216.122 108.706,127.89 121.495,265.371 121.495,265.371 0,0 121.933,251.172 119.315,262.267 -2.617,11.096 75.715,361.942 75.715,361.942 L 70.34,-36.752 Z" /></g><g
           transform="translate(1995.9607,1450.3838)"
           id="g220"><path
             id="path222"
             style="fill:#e1a293;fill-opacity:1;fill-rule:nonzero;stroke:none"
             d="M 0,0 V -43.736 C 83.239,-59.722 150.829,-1.809 148.207,18.792 145.585,39.392 84.615,6.967 0,0" /></g><g
           transform="translate(2661.1321,1196.7617)"
           id="g224"><path
             id="path226"
             style="fill:#fcffe4;fill-opacity:1;fill-rule:nonzero;stroke:none"
             d="m 0,0 c -77.03,-129.801 -134.025,-209.954 -134.025,-209.954 0,0 -90.423,-14.573 -87.499,-8.328 2.923,6.246 24.783,36.248 24.783,36.248 0,0 16.656,18.375 20.819,25.415 C -171.758,-149.579 0,0 0,0" /></g><g
           transform="translate(3229.137,1380.001)"
           id="g228"><path
             id="path230"
             style="fill:#341d4c;fill-opacity:1;fill-rule:nonzero;stroke:none"
             d="m 0,0 -3.394,-65.454 -62.061,6.303 c -191.03,-130.911 -338.91,-197.334 -375.759,-211.395 53.818,67.879 150.788,234.667 160.485,402.91 9.698,168.243 10.667,413.578 12.122,450.427 1.455,36.849 12.702,237.125 28.606,332.123 17.939,107.151 35.338,200.749 64.485,278.789 30.061,80.485 44.121,156.122 48.97,175.516 4.849,19.394 1.94,43.636 -31.516,70.303 -33.454,26.666 -167.542,105.941 -270.061,143.516 -107.152,39.273 -170.183,58.182 -170.183,58.182 -20.363,53.818 -63.515,199.274 -169.213,259.395 -105.697,60.121 -210.424,81.94 -340.365,31.031 -129.939,-50.91 -188.122,-138.183 -217.213,-206.547 -161.455,-2.424 -394.787,-53.454 -603.319,-135.499 -208.531,-82.045 -297.413,-143.579 -311.087,-164.09 -13.674,-20.511 -27.349,-23.93 13.674,-146.998 41.023,-123.067 109.393,-358.947 119.649,-536.711 10.256,-177.765 -6.837,-516.2 23.93,-663.198 30.767,-146.998 102.556,-293.996 119.649,-317.925 -136.742,58.115 -389.714,249.553 -434.155,304.251 75.208,20.51 41.022,3.418 64.952,17.092 23.93,13.674 44.441,27.348 17.093,75.208 -27.349,47.86 -30.767,157.253 3.419,225.625 34.185,68.371 68.37,95.719 95.719,109.393 27.348,13.674 34.185,75.208 34.185,112.812 0,37.604 -6.837,208.531 -27.348,362.366 -20.512,153.834 -109.394,396.551 -126.486,427.318 -17.093,30.767 -23.93,44.441 -23.93,68.371 0,23.929 23.93,34.185 41.022,58.115 17.093,23.93 85.464,126.486 109.394,170.927 23.93,44.442 71.789,116.231 71.789,116.231 17.093,-64.952 51.279,-157.253 153.835,-167.509 102.556,-10.255 170.927,23.93 208.531,75.208 37.604,51.278 64.953,160.672 64.953,160.672 0,0 191.438,133.323 252.972,167.509 61.534,34.185 61.534,41.022 160.672,58.115 99.137,17.093 191.438,10.256 259.809,-3.419 68.371,-13.674 88.882,-34.185 153.834,-78.626 64.953,-44.441 177.765,-123.068 215.369,-143.579 20.511,-61.534 27.348,-126.487 85.463,-174.346 58.115,-47.86 132.361,-98.331 239.299,-51.278 85.464,37.604 102.557,160.672 102.557,160.672 47.859,-71.79 89.835,-140.525 117.47,-188.041 27.637,-47.515 73.213,-103.273 84.365,-118.303 11.151,-15.031 36.848,-33.94 18.909,-64.001 -17.94,-30.061 -86.788,-208.485 -119.274,-355.88 -32.484,-147.394 -54.787,-355.395 -55.272,-444.608 -1.455,-67.394 2.424,-94.546 6.303,-112.97 3.879,-18.424 10.667,-31.516 40.243,-43.637 29.575,-12.121 73.696,-61.091 94.546,-117.334 20.847,-56.242 15.999,-144.97 7.757,-174.061 -8.243,-29.091 -26.182,-57.698 -23.273,-74.182 2.909,-16.485 0,-27.637 39.758,-37.334 39.758,-9.696 72.242,-25.697 90.667,-34.424 z m -738.855,-372.742 c 0,0 75.072,80.077 142.637,135.131 67.566,55.052 113.235,177.671 71.946,253.995 -41.29,76.324 -125.122,76.324 -184.555,31.28 37.537,16.266 131.378,16.266 144.515,-70.693 13.138,-86.959 -75.072,-189.559 -199.568,-290.281 0,0 -35.659,268.384 -56.304,375.363 10.635,13.763 83.831,98.845 206.45,86.334 122.619,-12.513 169.539,-110.107 219.588,-212.08 0,0 -45.044,-120.117 -138.885,-247.74 0,0 -25.025,-24.399 -205.824,-61.309 m -75.073,-16.266 c 0,0 -55.678,-15.014 -159.529,-25.024 0,0 49.423,133.254 58.807,272.137 -9.384,-29.403 -111.984,-274.014 -111.984,-274.014 0,0 -62.56,-3.128 -181.425,-3.754 -118.865,-0.625 -222.09,21.27 -222.09,21.27 0,0 -19.394,19.394 -86.333,87.585 0,0 7.507,37.537 0,83.831 -7.508,46.295 -30.655,192.687 -30.655,195.815 0,0 94.466,-80.703 193.938,-144.515 99.47,-63.811 156.086,-50.431 234.601,-4.379 130.126,76.324 255.872,213.331 255.872,213.331 0,0 -1.251,-46.921 10.01,-130.752 11.262,-83.831 63.187,-248.99 63.187,-248.99 0,0 -16.892,-30.029 -24.399,-42.541 m -927.147,66.314 c 0,0 -1.876,100.722 0,129.501 1.877,28.777 -6.882,55.052 62.561,62.559 69.442,7.508 98.22,3.754 98.22,3.754 10.01,-82.579 17.517,-134.505 17.517,-134.505 l -104.476,86.959 c 88.21,-139.51 150.771,-208.326 150.771,-208.326 0,0 -148.268,23.148 -224.593,60.058 m -127.578,947.451 c 0,0 -2.984,-93.445 69.365,-138.943 0,0 2.984,-7.459 6.713,-34.31 0,0 -21.63,10.442 -80.553,62.653 -58.924,52.21 -73.841,152.902 -79.062,214.809 -5.221,61.906 14.918,74.586 21.63,67.127 6.713,-7.458 44.752,-33.564 120.831,-119.338 v -56.686 c 0,0 -23.868,37.293 -98.455,58.178 0,0 -3.729,-23.868 39.531,-53.49 m 1020.799,514.422 c -4.903,-26.835 -9.657,-55.198 -13.045,-83.41 -9.705,3.865 -22.002,8.866 -37.011,15.175 -42.56,17.89 -99.573,15.104 -147.122,-33.004 -44.941,-45.469 -108.523,-125.305 -108.523,-125.305 0,0 -2.238,8.391 5.034,32.445 7.272,24.054 21.257,55.94 59.856,103.488 38.599,47.549 117.474,101.252 172.854,109.083 29.783,4.212 52.919,-7.108 67.957,-18.472 m -400.271,111.985 c 153.835,71.79 331.6,105.975 420.481,34.186 5.007,-18.361 -5.471,-67.72 -16.71,-127.327 -15.317,11.411 -36.128,20.122 -63.066,17.529 -67.634,-6.51 -123.067,-39.158 -188.518,-104.048 -65.449,-64.89 -72.162,-121.949 -74.959,-201.383 0,0 22.936,22.935 46.99,53.142 24.053,30.208 96.275,109.82 133.136,126.375 34.542,15.513 84.413,1.014 127.375,-17.443 -2.239,-24.776 -3.141,-49.043 -1.852,-71.608 6.838,-119.649 174.347,-256.39 174.347,-256.39 0,0 -13.675,-88.883 -41.024,-143.579 -27.347,-54.697 -61.533,-126.486 -61.533,-126.486 0,0 10.256,10.255 61.533,68.37 0,0 -20.511,-143.578 -95.719,-311.087 -75.208,-167.509 -250.366,-285.484 -300.832,-314.507 -50.466,-29.021 -77.435,-42.948 -138.968,-29.273 -61.535,13.674 -226.816,142.086 -332.791,271.99 -105.975,129.905 -143.103,343.993 -147.431,480.838 -4.328,136.844 -23.496,257.568 -40.589,407.984 -17.093,150.416 307.669,270.065 307.669,270.065 0,0 -47.86,23.93 -109.393,64.953 0,0 157.253,-41.023 341.854,-92.301 m 420.699,71.51 c -100.692,67.128 -284.175,40.276 -412.478,-26.851 -25.375,125.305 14.186,333.401 193.194,340.114 179.007,6.712 237.185,-228.234 219.284,-313.263 m 246.13,-928.625 c -26.692,-87.5 -78.629,-86.492 -134.543,-69.965 9.61,20.896 39.315,180.046 39.315,180.046 34.946,6.116 121.921,-22.581 95.228,-110.081 m -70.766,250.741 c 34.947,-34.073 60.283,-119.692 60.283,-119.692 0,0 -29.705,13.105 -75.135,13.105 0,0 17.473,62.03 14.852,106.587 m 290.892,369.368 c 9.034,152.449 -33.878,357.973 -213.429,464.123 0,0 0,64.367 -7.905,105.02 216.817,-57.592 420.082,-201.007 420.082,-201.007 0,0 -18.067,-33.877 -25.973,-68.884 -7.905,-35.007 -76.789,-239.402 -123.088,-416.695 0,0 -2.259,31.619 -49.687,117.443 m -11.293,-378.216 c 34.17,12.965 41.95,28.524 41.95,28.524 -6.482,-340.992 5.186,-567.889 -35.007,-650.868 -99.834,156.882 -108.64,158.271 -241.645,192.764 97.728,52.284 284.808,175.456 234.702,429.58 m -166.313,541.288 c -40.277,37.293 -42.515,117.847 -32.073,246.881 0,0 27.754,-12.52 72.62,-72.485 44.867,-59.965 85.503,-201.993 86.25,-277.325 0,0 -20.885,21.63 -70.858,37.293 0,0 48.482,-32.818 93.233,-122.322 44.752,-89.503 47.736,-242.406 14.171,-310.279 0,0 -30.444,95.656 -93.978,154.394 40.276,-89.504 82.045,-281.937 23.867,-387.104 -58.177,-105.167 -147.681,-196.908 -305.058,-227.489 0,0 17.901,33.564 25.36,65.637 56.165,-24.944 117.1,-7.459 158.868,38.039 41.77,45.497 50.964,121.641 8.648,182.45 0,0 2.54,17.441 -22.819,100.232 -25.359,82.791 -70.111,151.41 -152.156,230.473 -82.045,79.061 -88.758,172.294 -76.824,234.946 11.933,62.653 41.022,208.843 33.563,314.01 -7.458,105.167 -115.608,321.467 -296.853,286.411 -181.246,-35.055 -225.251,-225.996 -222.268,-311.771 0,0 -23.868,53.702 -34.31,121.576 2.238,199.891 73.841,316.246 194.671,377.408 120.829,61.16 274.478,72.348 369.949,-30.581 95.47,-102.929 135.747,-267.766 133.509,-383.374 -2.237,-115.609 17.155,-234.202 92.488,-267.02 M -1791.674,-184.625 c -6.837,-78.627 -6.795,-121.806 -6.795,-121.806 -35.821,9.387 -61.575,22.668 -61.575,22.668 0,0 -150.416,215.368 -167.509,369.202 -17.093,153.835 -9.004,591.894 -41.023,806.778 -32.019,214.884 -136.742,485.433 -136.742,485.433 150.416,126.486 516.201,273.484 861.474,300.832 l -10.256,-41.023 c -229.042,-30.766 -345.273,-58.115 -451.248,-126.485 -105.975,-68.371 -71.789,-78.627 -88.882,-150.416 -17.093,-71.79 -23.93,-85.464 -44.441,-112.812 -20.511,-27.349 -123.068,-85.464 -95.719,-215.369 27.348,-129.905 41.022,-177.764 61.534,-211.95 -30.768,-64.952 -30.768,-201.694 27.348,-290.576 58.115,-88.882 150.416,-129.905 164.09,-129.905 17.093,-92.3 64.952,-242.717 181.183,-372.622 l 17.093,-109.393 c -153.835,20.511 -201.694,-23.93 -208.532,-102.556 M 318.222,173.669 167.184,154.65 104.532,96.473 c 0,0 -81.673,44.752 -110.761,38.039 33.564,115.236 66.872,345.996 -133.393,403.055 -1.982,148.511 18.157,393.528 62.908,582.604 44.752,189.077 115.236,298.719 107.405,337.877 -7.832,39.158 -24.614,61.534 -63.771,125.306 -39.158,63.771 -170.058,272.986 -198.027,295.362 -27.97,22.376 -48.109,5.594 -53.703,-32.445 -5.593,-38.04 -27.969,-166.701 -154.394,-153.275 -126.424,13.425 -153.275,125.305 -185.72,201.383 -25.732,32.445 -132.018,110.761 -186.839,142.087 -54.821,31.326 -165.582,136.493 -373.119,127.543 -207.536,-8.95 -294.803,-74.959 -382.069,-130.899 -87.266,-55.94 -143.206,-92.86 -154.394,-107.405 -11.188,-14.544 -31.326,-36.92 -42.514,-74.959 -11.188,-38.039 -52.583,-143.206 -164.463,-157.75 -111.88,-14.545 -151.038,99.572 -161.107,153.275 -10.069,53.702 -32.445,57.059 -63.771,17.9 -31.326,-39.157 -214.809,-326.688 -236.067,-355.777 -21.256,-29.089 -19.019,-72.722 1.12,-114.117 20.138,-41.396 115.235,-309.907 136.492,-507.934 21.258,-198.027 17.901,-346.827 17.901,-346.827 -117.474,-48.108 -148.8,-135.374 -156.631,-221.522 -7.832,-86.147 20.138,-185.721 20.138,-185.721 -67.128,-15.662 -77.649,-21.087 -77.649,-21.087 -83.91,87.266 -119.259,126.254 -119.259,126.254 -8.95,-6.712 -564.992,-514.646 -564.992,-514.646 l 298.718,-304.312 100.692,-10.07 33.564,-92.859 234.947,-153.276 157.75,11.188 181.246,-100.692 -26.852,-67.127 309.907,-102.93 25.733,77.197 102.929,-109.642 c 0,0 196.908,-68.247 557.16,-55.94 360.253,12.307 597.438,50.346 845.811,139.85 248.373,89.504 617.576,271.868 798.82,450.875 l -14.544,17.901 36.921,1.118 c 0,0 158.869,144.325 205.859,195.79 l 27.969,166.7 z" /></g><g
           transform="translate(1378.5798,2703.4727)"
           id="g232"><path
             id="path234"
             style="fill:#fcffe4;fill-opacity:1;fill-rule:nonzero;stroke:none"
             d="m 0,0 c -13.229,-43.275 -29.29,-101.762 -71.089,-132.745 -28.513,-21.134 -60.18,-44.472 -64.231,-69.94 -9.992,-62.804 32.833,-155.997 32.833,-155.997 -29.142,108.479 -11.437,133.16 47.805,183.83 C 4.561,-124.18 28.269,-68.513 0,0" /></g><g
           transform="translate(1815.8049,2108.6079)"
           id="g236"><path
             id="path238"
             style="fill:#341d4c;fill-opacity:1;fill-rule:nonzero;stroke:none"
             d="m 0,0 c 0,0 -19.704,-14.778 -72.249,-22.989 -52.545,-8.21 -94.417,6.569 -133.826,27.413 0,0 27.094,-47.117 87.849,-47.005 C -57.471,-42.469 -39.409,-32.841 0,0" /></g><g
           transform="translate(1710.7473,2159.356)"
           id="g240"><path
             id="path242"
             style="fill:#341d4c;fill-opacity:1;fill-rule:nonzero;stroke:none"
             d="M 0,0 C 7.93,-6.628 18.228,-10.309 28.349,-10.704 40.657,-11.183 52.612,-6.794 59.663,2.841 66.048,2.442 72.485,1.86 78.981,1.133 72.377,-17.511 53.642,-33.911 23.015,-33.911 c -26.54,0 -45.268,14.89 -54.46,25.5 C -20.988,-4.632 -10.522,-1.895 0,0 m 45.124,-52.39 c 37.489,4.998 50.717,36.131 54.903,50.733 10.784,-1.624 21.749,-3.529 32.945,-5.577 0,0 -3.284,24.63 -53.366,36.124 0,0 9.032,3.284 24.631,9.852 -37.767,5.747 -68.144,10.674 -139.573,-15.599 -71.428,-26.272 -92.774,-48.44 -170.771,-62.397 28.867,-12.83 89.842,-9.199 148.507,19.277 30.889,-28.354 55.496,-38.711 102.724,-32.413" /></g><g
           transform="translate(1551.6609,2169.854)"
           id="g244"><path
             id="path246"
             style="fill:#341d4c;fill-opacity:1;fill-rule:nonzero;stroke:none"
             d="M 0,0 C 61.527,23.073 140.422,63.512 157.54,65.249 99.486,71.451 29.275,37.462 0,0" /></g><g
           transform="translate(1659.5754,2423.7212)"
           id="g248"><path
             id="path250"
             style="fill:#341d4c;fill-opacity:1;fill-rule:nonzero;stroke:none"
             d="m 0,0 c -93.979,-14.917 -145.443,-66.382 -159.615,-93.233 -14.171,-26.851 0,-66.382 0,-66.382 0,0 55.082,41.768 130.47,65.636 75.389,23.868 105.054,10.887 160.417,-8.95 55.364,-19.838 62.114,-35.876 87.267,-29.089 25.152,6.787 35.055,55.94 35.055,55.94 C 235.693,-94.725 225.717,-99.946 225.717,-99.946 185.104,-69.363 93.979,14.917 0,0" /></g><g
           transform="translate(1964.634,2105.1841)"
           id="g252"><path
             id="path254"
             style="fill:#341d4c;fill-opacity:1;fill-rule:nonzero;stroke:none"
             d="m 0,0 c -1.492,22.323 -25.545,64.67 -25.545,64.67 2.237,-25.36 -1.306,-16.136 5.429,-49.327 6.735,-33.191 -6.735,-19.019 -14.94,-70.484 0,0 36.548,32.818 35.056,55.141" /></g><g
           transform="translate(2071.2302,2050.043)"
           id="g256"><path
             id="path258"
             style="fill:#341d4c;fill-opacity:1;fill-rule:nonzero;stroke:none"
             d="m 0,0 c -8.205,51.465 -21.674,37.293 -14.939,70.484 6.734,33.191 3.191,23.967 5.429,49.327 0,0 -24.054,-42.347 -25.546,-64.67 C -36.547,32.818 0,0 0,0" /></g><g
           transform="translate(1913.1697,1806.1455)"
           id="g260"><path
             id="path262"
             style="fill:#341d4c;fill-opacity:1;fill-rule:nonzero;stroke:none"
             d="m 0,0 c 13.425,-2.983 9.782,13.426 37.709,2.237 27.927,-11.187 28.673,-17.9 49.557,-17.9 V -5.221 C 76.614,-6.996 65.081,4.215 51.509,17.155 42.272,25.961 34.691,38.662 15.663,36.548 -31.327,31.326 -13.426,2.983 0,0" /></g><g
           transform="translate(1875.8762,1798.6865)"
           id="g264"><path
             id="path266"
             style="fill:#341d4c;fill-opacity:1;fill-rule:nonzero;stroke:none"
             d="M 0,0 C 15.663,-9.696 37.293,-4.475 37.293,-4.475 8.205,0.746 -13.425,40.822 -3.729,70.011 -32.072,49.228 -15.663,9.696 0,0" /></g><g
           transform="translate(2087.7019,1806.1455)"
           id="g268"><path
             id="path270"
             style="fill:#341d4c;fill-opacity:1;fill-rule:nonzero;stroke:none"
             d="m 0,0 c -13.426,-2.983 -9.782,13.426 -37.709,2.237 -27.927,-11.187 -28.673,-17.9 -49.557,-17.9 v 10.442 c 10.652,-1.775 22.184,9.436 35.757,22.376 9.237,8.806 16.818,21.507 35.846,19.393 C 31.327,31.326 13.425,2.983 0,0" /></g><g
           transform="translate(2124.9954,1798.6865)"
           id="g272"><path
             id="path274"
             style="fill:#341d4c;fill-opacity:1;fill-rule:nonzero;stroke:none"
             d="M 0,0 C -15.663,-9.696 -37.293,-4.475 -37.293,-4.475 -8.205,0.746 13.426,40.822 3.729,70.011 32.072,49.228 15.663,9.696 0,0" /></g><g
           transform="translate(1884.9368,1627.8838)"
           id="g276"><path
             id="path278"
             style="fill:#341d4c;fill-opacity:1;fill-rule:nonzero;stroke:none"
             d="m 0,0 c -72.459,-30.58 -116.465,-21.63 -149.283,-12.68 -32.818,8.951 -41.768,29.835 -41.768,29.835 13.425,23.121 18.882,28.343 18.882,28.343 -47.971,-6.713 -53.192,-55.074 -39.021,-66.695 -1.492,10.755 12.68,25.673 12.68,25.673 24.614,-24.615 74.586,-56.686 140.968,-42.515 66.382,14.172 123.053,26.851 168.566,16.409 V -2.983 C 111.024,-2.983 72.459,30.58 0,0" /></g><g
           transform="translate(2102.5334,1629.8721)"
           id="g280"><path
             id="path282"
             style="fill:#341d4c;fill-opacity:1;fill-rule:nonzero;stroke:none"
             d="m 0,0 c 76.596,-17.85 122.382,14.907 196.327,74.213 37.897,30.393 49.208,79.492 49.208,79.492 -21.832,15.435 -28.967,17.91 -28.967,17.91 46.412,13.865 71.291,-27.933 63.244,-44.398 -3.122,10.399 -22.216,18.064 -22.216,18.064 -12.134,-32.626 -82.957,-157.395 -233.017,-170.056 -67.638,-5.707 -85.639,11.599 -131.152,1.157 v 18.646 c 0,0 29.978,22.822 106.573,4.972" /></g><g
           transform="translate(2292.2219,1857.48)"
           id="g284"><path
             id="path286"
             style="fill:#341d4c;fill-opacity:1;fill-rule:nonzero;stroke:none"
             d="m 0,0 c 0,-8.038 -6.516,-14.553 -14.554,-14.553 -8.038,0 -14.553,6.515 -14.553,14.553 0,8.038 6.515,14.554 14.553,14.554 C -6.516,14.554 0,8.038 0,0" /></g><g
           transform="translate(2038.8538,1576.2236)"
           id="g288"><path
             id="path290"
             style="fill:#d79484;fill-opacity:1;fill-rule:nonzero;stroke:none"
             d="M 0,0 C -0.491,-17.576 90.45,-15.986 80.859,7.993 71.268,31.973 0.67,23.979 0,0" /></g><g
           transform="translate(2022.1975,1676.9365)"
           id="g292"><path
             id="path294"
             style="fill:#d79484;fill-opacity:1;fill-rule:nonzero;stroke:none"
             d="M 0,0 C 3.197,-9.592 46.359,-12.789 44.761,0 43.162,12.789 -3.197,9.592 0,0" /></g><g
           transform="translate(2222.2522,2162.1968)"
           id="g296"><path
             id="path298"
             style="fill:#341d4c;fill-opacity:1;fill-rule:nonzero;stroke:none"
             d="m 0,0 c -22.169,0 -41.424,8.165 -53.766,21.601 6.862,4.791 14.681,8.922 24.107,12.095 14.941,-15.001 45.036,-14.054 52.794,6.933 8.411,0.144 17.091,0.276 25.941,0.482 C 45.327,19.78 24.119,0 0,0 M 277.002,157.961 C 218.773,127.959 222.933,98.9 130.599,97.237 38.265,95.573 2.496,105.555 -42.424,90.582 c -44.919,-14.973 -92.333,-104.808 -95.66,-139.747 32.77,14.975 47.838,36.131 65.286,54.139 31.112,-29.36 64.115,-33.532 97.753,-23.35 31.135,9.424 44.514,37.994 47.566,60.269 17.22,0.774 34.779,2.118 52.096,4.635 -44.344,-86.766 -113.27,-102.287 -153.255,-98.453 -40.836,3.916 -48.108,15.173 -63.771,7.272 21.257,3.916 41.134,-36.361 117.531,-19.579 6.283,1.381 12.272,2.997 18.029,4.796 l 40.651,-13.231 c 0,0 -9.279,12.557 -20.153,20.921 9.824,4.381 18.771,9.445 26.927,15.112 l 43.483,-5.035 c 0,0 -13.771,12.448 -27.25,18.027 10.74,9.823 19.828,20.875 27.561,32.867 l 46.495,2.574 c 0,0 -21.391,13.552 -36.876,14.1 4.415,8.551 8.295,17.456 11.729,26.63 52.903,13.172 99.641,41.828 121.284,105.432" /></g><g
           transform="translate(2097.3982,2195.3003)"
           id="g300"><path
             id="path302"
             style="fill:#341d4c;fill-opacity:1;fill-rule:nonzero;stroke:none"
             d="m 0,0 c 0,0 31.327,55.38 55.94,76.638 24.613,21.257 48.667,25.732 87.825,33.004 39.158,7.272 46.431,3.84 67.128,-3.954 20.698,-7.793 44.752,-16.184 44.752,-16.184 -39.158,27.97 -72.722,45.871 -102.37,43.633 C 123.626,130.899 82.232,117.474 63.771,111.32 45.311,105.167 29.088,76.638 19.579,57.059 10.069,37.479 0,0 0,0" /></g><g
           transform="translate(1995.9607,1459.4023)"
           id="g304"><path
             id="path306"
             style="fill:#fbe7cf;fill-opacity:1;fill-rule:nonzero;stroke:none"
             d="M 0,0 C -9.243,18.672 73.23,40.354 71.041,20.977 68.852,1.599 11.079,-22.381 0,0" /></g><g
           transform="translate(2522.0159,2588.0229)"
           id="g308"><path
             id="path310"
             style="fill:#fcffe4;fill-opacity:1;fill-rule:nonzero;stroke:none"
             d="M 0,0 C -86.325,-140.678 -12.164,-277.539 61.06,-352.185 134.283,-426.83 163.059,-482.834 163.059,-482.834 140.678,-356.491 46.118,-296.474 16.22,-209.418 -22.762,-95.917 0,0 0,0" /></g><g
           transform="translate(2676.217,2461.7324)"
           id="g312"><path
             id="path314"
             style="fill:#fcffe4;fill-opacity:1;fill-rule:nonzero;stroke:none"
             d="m 0,0 c -13.897,-34.248 -11.416,-56.584 -11.416,-56.584 -42.687,-9.431 -50.132,-20.847 -50.132,-20.847 26.307,-3.97 49.636,-4.466 49.636,-4.466 3.971,-46.161 15.387,-53.606 15.387,-53.606 14.393,21.342 8.934,56.584 8.934,56.584 32.263,0.992 44.175,11.168 44.175,11.168 -16.38,7.196 -44.672,10.174 -44.672,10.174 C 9.927,-19.854 0,0 0,0" /></g><g
           transform="translate(2570.4104,1401.0654)"
           id="g316"><path
             id="path318"
             style="fill:#fcffe4;fill-opacity:1;fill-rule:nonzero;stroke:none"
             d="m 0,0 c -11.394,-28.075 -9.359,-46.386 -9.359,-46.386 -34.993,-7.731 -33.942,-11.6 -33.942,-11.6 18.916,-8.464 33.535,-9.152 33.535,-9.152 3.255,-37.841 12.614,-43.944 12.614,-43.944 11.799,17.496 7.324,46.386 7.324,46.386 26.448,0.813 36.214,11.967 36.214,11.967 -13.428,5.9 -36.621,5.53 -36.621,5.53 C 8.138,-16.275 0,0 0,0" /></g><g
           transform="translate(2492.1868,1241.9043)"
           id="g320"><path
             id="path322"
             style="fill:#fcffe4;fill-opacity:1;fill-rule:nonzero;stroke:none"
             d="m 0,0 c -8.899,-21.932 -7.311,-36.234 -7.311,-36.234 -27.335,-6.039 -26.513,-9.062 -26.513,-9.062 14.776,-6.611 26.195,-7.148 26.195,-7.148 2.543,-29.56 9.854,-34.327 9.854,-34.327 9.217,13.667 5.721,36.234 5.721,36.234 20.659,0.636 28.288,9.348 28.288,9.348 C 25.745,-36.581 7.628,-36.87 7.628,-36.87 6.356,-12.714 0,0 0,0" /></g><g
           transform="translate(2793.0276,2215.7856)"
           id="g324"><path
             id="path326"
             style="fill:#fcffe4;fill-opacity:1;fill-rule:nonzero;stroke:none"
             d="m 0,0 c 0,-21.386 -17.336,-38.722 -38.722,-38.722 -21.385,0 -38.722,17.336 -38.722,38.722 0,21.386 17.337,38.722 38.722,38.722 C -17.336,38.722 0,21.386 0,0" /></g><g
           transform="translate(2490.092,2020.4248)"
           id="g328"><path
             id="path330"
             style="fill:#fcffe4;fill-opacity:1;fill-rule:nonzero;stroke:none"
             d="m 0,0 c 0,-11.521 -9.34,-20.859 -20.86,-20.859 -11.52,0 -20.86,9.338 -20.86,20.859 0,11.521 9.34,20.859 20.86,20.859 C -9.34,20.859 0,11.521 0,0" /></g><g
           transform="translate(2391.3479,2060.9038)"
           id="g332"><path
             id="path334"
             style="fill:#fcffe4;fill-opacity:1;fill-rule:nonzero;stroke:none"
             d="m 0,0 c 0,-5.559 -4.507,-10.065 -10.065,-10.065 -5.56,0 -10.066,4.506 -10.066,10.065 0,5.559 4.506,10.065 10.066,10.065 C -4.507,10.065 0,5.559 0,0" /></g><g
           transform="translate(2425.3821,1905.0991)"
           id="g336"><path
             id="path338"
             style="fill:#fcffe4;fill-opacity:1;fill-rule:nonzero;stroke:none"
             d="m 0,0 c 0,-18.796 -15.237,-34.034 -34.034,-34.034 -18.797,0 -34.034,15.238 -34.034,34.034 0,18.797 15.237,34.035 34.034,34.035 C -15.237,34.035 0,18.797 0,0" /></g><g
           transform="translate(2480.9299,1323.9873)"
           id="g340"><path
             id="path342"
             style="fill:#fcffe4;fill-opacity:1;fill-rule:nonzero;stroke:none"
             d="m 0,0 c 0,-12.465 -10.104,-22.569 -22.569,-22.569 -12.466,0 -22.571,10.104 -22.571,22.569 0,12.465 10.105,22.57 22.571,22.57 C -10.104,22.57 0,12.465 0,0" /></g><g
           transform="translate(2773.0432,1249.0283)"
           id="g344"><path
             id="path346"
             style="fill:#fcffe4;fill-opacity:1;fill-rule:nonzero;stroke:none"
             d="m 0,0 c 0,-12.465 -10.104,-22.57 -22.57,-22.57 -12.465,0 -22.57,10.105 -22.57,22.57 0,12.465 10.105,22.57 22.57,22.57 C -10.104,22.57 0,12.465 0,0" /></g><g
           transform="translate(563.9178,1234.1123)"
           id="g348"><path
             id="path350"
             style="fill:#1a0027;fill-opacity:1;fill-rule:nonzero;stroke:none"
             d="M 0,0 102.93,104.048 146.607,60.999 50.354,-45.445 Z m -118.592,-224.506 -49.973,48.109 99.946,103.674 48.481,-44.379 z m 182.986,95.366 79.663,-2.124 125.169,149.138 -16.46,79.949 C 205.334,133.593 88.165,257.722 88.165,257.722 l -427.4,-397.484 c 0,0 155.078,-165.7 209.25,-206.062 l 90.285,-10.622 122.151,148.705 z" /></g><g
           transform="translate(1037.2507,1165.5166)"
           id="g352"><path
             id="path354"
             style="fill:#1a0027;fill-opacity:1;fill-rule:nonzero;stroke:none"
             d="m 0,0 -132.772,-203.938 -50.985,32.927 138.083,202.877 c 0,0 -59.482,43.549 -91.347,64.793 l -181.633,-231.555 28.679,-83.381 105.687,-69.574 -78.07,-123.212 -59.483,41.424 54.172,81.788 -107.281,75.416 -88.161,-112.591 26.555,-83.913 c 0,0 66.917,-52.047 181.633,-124.275 l 86.036,7.435 263.421,472.139 c 0,0 -46.736,21.775 -94.534,53.64" /></g><g
           transform="translate(936.3436,648.2354)"
           id="g356"><path
             id="path358"
             style="fill:#1a0027;fill-opacity:1;fill-rule:nonzero;stroke:none"
             d="m 0,0 c 71.166,-40.363 109.405,-57.358 109.405,-57.358 l 37.176,79.664 C 101.97,40.362 38.239,73.29 38.239,73.29 Z" /></g><g
           transform="translate(1124.0066,1004.4327)"
           id="g360"><path
             id="path362"
             style="fill:#1a0027;fill-opacity:1;fill-rule:nonzero;stroke:none"
             d="m 0,0 -41.082,-78.969 c 71.166,-40.362 100.907,-47.798 100.907,-47.798 l 33.99,82.619 C 49.204,-26.091 0,0 0,0" /></g><g
           transform="translate(1576.8386,930.7755)"
           id="g364"><path
             id="path366"
             style="fill:#1a0027;fill-opacity:1;fill-rule:nonzero;stroke:none"
             d="m 0,0 c -134.897,33.989 -253.861,82.85 -253.861,82.85 l -38.268,-86.107 76.506,-31.795 -168.886,-454.614 c 0,0 45.674,-23.367 134.897,-49.922 l 143.394,469.484 81.788,-24.43 z" /></g><g
           transform="translate(1708.074,406.5752)"
           id="g368"><path
             id="path370"
             style="fill:#1a0027;fill-opacity:1;fill-rule:nonzero;stroke:none"
             d="M 0,0 C -1.492,0 -66.382,10.069 -66.382,10.069 L 2.61,393.07 c 1.865,0.373 55.568,-8.95 55.568,-8.95 C 58.178,384.12 1.492,0 0,0 m -30.328,501.895 -70.104,-39.301 -112.591,-471.609 60.544,-62.669 c 0,0 116.84,-21.243 210.312,-35.051 l 73.29,39.3 43.55,487.541 -47.798,50.985 c 0,0 -114.716,20.181 -157.203,30.804" /></g><g
           transform="translate(2032.5144,379.503)"
           id="g372"><path
             id="path374"
             style="fill:#1a0027;fill-opacity:1;fill-rule:nonzero;stroke:none"
             d="m 0,0 9.368,488.604 -108.151,4.249 -39.3,-586.325 c 0,0 223.057,-12.746 347.333,0 L 201.814,5.312 C 201.814,5.312 29.741,-2.124 0,0" /></g><g
           transform="translate(2247.0745,877.6661)"
           id="g376"><path
             id="path378"
             style="fill:#1a0027;fill-opacity:1;fill-rule:nonzero;stroke:none"
             d="M 0,0 56.296,-584.199 195.441,-567.204 107.179,9.743 Z" /></g><g
           transform="translate(2611.4026,943.5215)"
           id="g380"><path
             id="path382"
             style="fill:#1a0027;fill-opacity:1;fill-rule:nonzero;stroke:none"
             d="m 0,0 -154.017,-39.301 -47.797,-58.42 95.596,-524.717 135.959,24.43 -111.529,475.857 54.172,13.808 126.399,-471.608 138.083,38.239 -168.887,511.971 z" /></g><g
           transform="translate(2861.0149,1038.0557)"
           id="g384"><path
             id="path386"
             style="fill:#1a0027;fill-opacity:1;fill-rule:nonzero;stroke:none"
             d="M 0,0 97.721,-223.059 42.487,-243.239 -49.619,-24.107 -154.016,-64.793 43.55,-611.816 c 93.471,30.803 132.772,50.984 132.772,50.984 l -95.596,222.527 57.358,26.024 108.342,-221.996 c 57.358,27.617 127.462,64.793 127.462,64.793 L 95.597,47.798 Z" /></g><g
           transform="translate(3254.2512,918.6114)"
           id="g388"><path
             id="path390"
             style="fill:#1a0027;fill-opacity:1;fill-rule:nonzero;stroke:none"
             d="M 0,0 -107.031,165.582 -57.805,198.026 52.397,36.547 Z m -68.992,309.906 c -1.119,-3.356 -133.137,-89.504 -133.137,-89.504 l -30.208,-76.078 262.918,-462.062 127.542,72.721 -104.048,165.582 51.465,33.179 110.761,-161.841 120.83,88.385 L 9.323,302.075 c 0,0 -77.197,11.188 -78.315,7.831" /></g><g
           transform="translate(3695.4299,1295.6455)"
           id="g392"><path
             id="path394"
             style="fill:#1a0027;fill-opacity:1;fill-rule:nonzero;stroke:none"
             d="m 0,0 -81.603,-18.573 -90.92,-88.589 -97.701,106.033 40.435,40.792 68.694,-70.402 88.385,93.979 -108.535,97.866 -78.316,-7.831 c 0,0 -78.315,-81.671 -123.067,-116.355 l -12.307,-78.316 155.513,-189.076 83.909,7.831 95.098,87.267 101.811,-101.811 -53.703,-48.108 -62.652,69.365 -101.811,-89.504 88.385,-115.236 89.504,12.248 164.463,156.691 13.426,86.147 z" /></g><g
           transform="translate(565.0369,1258.7256)"
           id="g396"><path
             id="path398"
             style="fill:#fef37d;fill-opacity:1;fill-rule:nonzero;stroke:none"
             d="M 0,0 102.929,104.048 146.607,60.999 50.354,-45.445 Z m -118.593,-224.506 -49.972,48.109 99.945,103.675 48.482,-44.379 z m 182.986,95.366 79.664,-2.124 125.169,149.138 -16.46,79.949 C 205.333,133.593 88.164,257.722 88.164,257.722 l -427.4,-397.483 c 0,0 155.079,-165.7 209.25,-206.063 l 90.285,-10.622 122.151,148.705 z" /></g><g
           transform="translate(1038.3694,1190.1309)"
           id="g400"><path
             id="path402"
             style="fill:#fef37d;fill-opacity:1;fill-rule:nonzero;stroke:none"
             d="m 0,0 -132.772,-203.939 -50.985,32.927 138.084,202.877 c 0,0 -59.483,43.549 -91.348,64.793 l -181.633,-231.555 28.679,-83.381 105.687,-69.574 -78.07,-123.212 -59.482,41.425 54.171,81.787 -107.281,75.416 -88.16,-112.591 26.554,-83.912 c 0,0 66.917,-52.047 181.633,-124.276 l 86.037,7.436 263.42,472.138 c 0,0 -46.736,21.775 -94.534,53.641" /></g><g
           transform="translate(937.4627,672.8487)"
           id="g404"><path
             id="path406"
             style="fill:#fef37d;fill-opacity:1;fill-rule:nonzero;stroke:none"
             d="m 0,0 c 71.166,-40.363 109.404,-57.357 109.404,-57.357 l 37.177,79.663 C 101.969,40.363 38.238,73.29 38.238,73.29 Z" /></g><g
           transform="translate(1125.1252,1029.0459)"
           id="g408"><path
             id="path410"
             style="fill:#fef37d;fill-opacity:1;fill-rule:nonzero;stroke:none"
             d="m 0,0 -41.082,-78.968 c 71.166,-40.363 100.907,-47.799 100.907,-47.799 l 33.99,82.62 C 49.204,-26.091 0,0 0,0" /></g><g
           transform="translate(1577.9573,955.3887)"
           id="g412"><path
             id="path414"
             style="fill:#fef37d;fill-opacity:1;fill-rule:nonzero;stroke:none"
             d="m 0,0 c -134.897,33.989 -253.861,82.85 -253.861,82.85 l -38.268,-86.107 76.506,-31.795 -168.886,-454.613 c 0,0 45.674,-23.368 134.897,-49.923 l 143.394,469.484 81.788,-24.43 z" /></g><g
           transform="translate(1709.1931,431.1885)"
           id="g416"><path
             id="path418"
             style="fill:#fef37d;fill-opacity:1;fill-rule:nonzero;stroke:none"
             d="M 0,0 C -1.492,0 -66.382,10.069 -66.382,10.069 L 2.61,393.071 C 4.475,393.443 58.177,384.12 58.177,384.12 58.177,384.12 1.491,0 0,0 m -30.329,501.895 -70.104,-39.301 -112.59,-471.609 60.544,-62.669 c 0,0 116.84,-21.243 210.312,-35.051 l 73.29,39.3 43.549,487.541 -47.797,50.985 c 0,0 -114.716,20.181 -157.204,30.804" /></g><g
           transform="translate(2033.6331,404.1172)"
           id="g420"><path
             id="path422"
             style="fill:#fef37d;fill-opacity:1;fill-rule:nonzero;stroke:none"
             d="m 0,0 9.368,488.603 -108.151,4.249 -39.3,-586.325 c 0,0 223.058,-12.746 347.332,0 L 201.814,5.311 C 201.814,5.311 29.741,-2.125 0,0" /></g><g
           transform="translate(2248.1936,902.2794)"
           id="g424"><path
             id="path426"
             style="fill:#fef37d;fill-opacity:1;fill-rule:nonzero;stroke:none"
             d="M 0,0 56.296,-584.199 195.441,-567.204 107.178,9.744 Z" /></g><g
           transform="translate(2612.5217,968.1348)"
           id="g428"><path
             id="path430"
             style="fill:#fef37d;fill-opacity:1;fill-rule:nonzero;stroke:none"
             d="m 0,0 -154.017,-39.301 -47.797,-58.42 95.595,-524.716 135.96,24.429 -111.529,475.858 54.171,13.807 126.399,-471.607 138.084,38.238 -168.887,511.971 z" /></g><g
           transform="translate(2862.134,1062.6689)"
           id="g432"><path
             id="path434"
             style="fill:#fef37d;fill-opacity:1;fill-rule:nonzero;stroke:none"
             d="M 0,0 97.721,-223.058 42.487,-243.239 -49.619,-24.107 -154.017,-64.793 43.549,-611.816 c 93.472,30.803 132.773,50.985 132.773,50.985 l -95.596,222.526 57.357,26.024 108.343,-221.996 c 57.357,27.617 127.462,64.793 127.462,64.793 L 95.596,47.798 Z" /></g><g
           transform="translate(3255.3704,943.2247)"
           id="g436"><path
             id="path438"
             style="fill:#fef37d;fill-opacity:1;fill-rule:nonzero;stroke:none"
             d="M 0,0 -107.032,165.582 -57.805,198.027 52.396,36.548 Z m -68.993,309.907 c -1.118,-3.356 -133.137,-89.504 -133.137,-89.504 l -30.207,-76.078 262.917,-462.063 127.543,72.721 -104.048,165.582 51.465,33.179 110.761,-161.84 120.83,88.385 L 9.323,302.075 c 0,0 -77.197,11.188 -78.316,7.832" /></g><g
           transform="translate(3696.5491,1320.2588)"
           id="g440"><path
             id="path442"
             style="fill:#fef37d;fill-opacity:1;fill-rule:nonzero;stroke:none"
             d="m 0,0 -81.603,-18.572 -90.92,-88.59 -97.701,106.033 40.435,40.793 68.693,-70.403 88.386,93.979 -108.535,97.867 -78.316,-7.832 c 0,0 -78.316,-81.671 -123.068,-116.354 l -12.307,-78.316 155.513,-189.077 83.91,7.832 95.098,87.266 101.811,-101.811 -53.703,-48.108 -62.652,69.365 -101.811,-89.504 88.385,-115.235 89.504,12.247 164.463,156.691 13.426,86.148 z" /></g><g
           transform="translate(1020.1072,1162.0801)"
           id="g444"><path
             id="path446"
             style="fill:#fef7a7;fill-opacity:1;fill-rule:nonzero;stroke:none"
             d="M 0,0 39.237,14.626 C 32.365,18.857 25.328,23.341 18.262,28.051 Z" /></g><g
           transform="translate(614.5643,1010.9053)"
           id="g448"><path
             id="path450"
             style="fill:#fef7a7;fill-opacity:1;fill-rule:nonzero;stroke:none"
             d="M 0,0 32.923,40.08 26.102,69.772 -250.872,-33.476 c 16.395,-16.024 32.084,-30.91 45.637,-43.03 z" /></g><g
           transform="translate(719.7156,1055.2334)"
           id="g452"><path
             id="path454"
             style="fill:#fef7a7;fill-opacity:1;fill-rule:nonzero;stroke:none"
             d="M 0,0 1.564,-4.548 209.016,72.784 263.776,153.24 60.872,77.604 Z" /></g><g
           transform="translate(1368.7854,548.2071)"
           id="g456"><path
             id="path458"
             style="fill:#fef7a7;fill-opacity:1;fill-rule:nonzero;stroke:none"
             d="M 0,0 20.695,67.757 -142.063,7.086 -167.954,-62.609 Z" /></g><g
           transform="translate(2248.1936,902.2794)"
           id="g460"><path
             id="path462"
             style="fill:#fef7a7;fill-opacity:1;fill-rule:nonzero;stroke:none"
             d="M 0,0 2.442,-25.344 93.146,8.468 Z" /></g><g
           transform="translate(1879.1497,798.4981)"
           id="g464"><path
             id="path466"
             style="fill:#fef7a7;fill-opacity:1;fill-rule:nonzero;stroke:none"
             d="m 0,0 -120.938,-45.082 c -2.762,-18.636 -5.985,-40.352 -9.438,-63.561 L -5.548,-62.11 Z" /></g><g
           transform="translate(2042.3611,859.3389)"
           id="g468"><path
             id="path470"
             style="fill:#fef7a7;fill-opacity:1;fill-rule:nonzero;stroke:none"
             d="m 0,0 -112.853,-42.068 -4.128,-61.581 115.821,43.174 z" /></g><g
           transform="translate(1541.6418,612.6426)"
           id="g472"><path
             id="path474"
             style="fill:#fef7a7;fill-opacity:1;fill-rule:nonzero;stroke:none"
             d="M 0,0 141.546,52.765 153.141,117.13 15.735,65.908 Z" /></g><g
           transform="translate(3162.6194,729.6231)"
           id="g476"><path
             id="path478"
             style="fill:#fef7a7;fill-opacity:1;fill-rule:nonzero;stroke:none"
             d="m 0,0 -128.829,-48.025 24.792,-50.801 130.943,48.813 z" /></g><g
           transform="translate(2971.2483,658.2823)"
           id="g480"><path
             id="path482"
             style="fill:#fef7a7;fill-opacity:1;fill-rule:nonzero;stroke:none"
             d="m 0,0 -123.812,-46.154 19.113,-52.919 126.932,47.319 z" /></g><g
           transform="translate(3552.511,874.9688)"
           id="g484"><path
             id="path486"
             style="fill:#fef7a7;fill-opacity:1;fill-rule:nonzero;stroke:none"
             d="m 0,0 -140.658,-52.436 32.739,-47.837 144.101,53.717 z" /></g><g
           transform="translate(2425.3235,454.7715)"
           id="g488"><path
             id="path490"
             style="fill:#fef7a7;fill-opacity:1;fill-rule:nonzero;stroke:none"
             d="m 0,0 -129.359,-48.224 5.585,-57.961 132.463,49.381 z" /></g><g
           transform="translate(2606.5872,522.3428)"
           id="g492"><path
             id="path494"
             style="fill:#fef7a7;fill-opacity:1;fill-rule:nonzero;stroke:none"
             d="m 0,0 -124.042,-46.24 10.243,-56.225 126.74,47.247 z" /></g><g
           transform="translate(2794.6223,592.4395)"
           id="g496"><path
             id="path498"
             style="fill:#fef7a7;fill-opacity:1;fill-rule:nonzero;stroke:none"
             d="m 0,0 -125.521,-46.792 14.631,-54.589 128.528,47.913 z" /></g><g
           transform="translate(3349.886,799.4327)"
           id="g500"><path
             id="path502"
             style="fill:#fef7a7;fill-opacity:1;fill-rule:nonzero;stroke:none"
             d="m 0,0 -134.403,-50.104 28.186,-49.535 136.786,50.993 z" /></g><g
           transform="translate(2237.3098,384.6826)"
           id="g504"><path
             id="path506"
             style="fill:#fef7a7;fill-opacity:1;fill-rule:nonzero;stroke:none"
             d="m 0,0 -211.606,-78.884 c 51.897,-1.119 111.601,-1.365 163.922,1.066 l 52.08,19.414 z" /></g><g
           transform="translate(3727.3958,940.1622)"
           id="g508"><path
             id="path510"
             style="fill:#fef7a7;fill-opacity:1;fill-rule:nonzero;stroke:none"
             d="m 0,0 -102.801,-38.322 73.073,9.999 z" /></g><g
           transform="translate(1642.8113,441.2578)"
           id="g512"><path
             id="path514"
             style="fill:#fef7a7;fill-opacity:1;fill-rule:nonzero;stroke:none"
             d="m 0,0 22.715,126.102 -147.854,-55.117 -21.503,-90.069 38.645,-40.001 143.724,53.576 C 18.328,-2.844 0,0 0,0" /></g><g
           transform="translate(1865.1501,641.7735)"
           id="g516"><path
             id="path518"
             style="fill:#fef7a7;fill-opacity:1;fill-rule:nonzero;stroke:none"
             d="m 0,0 -130.838,-48.772 c -9.115,-60.776 -17.7,-117.386 -22.093,-144.697 l 140.322,52.308 z" /></g><g
           transform="translate(2039.4353,706.7422)"
           id="g520"><path
             id="path522"
             style="fill:#fef7a7;fill-opacity:1;fill-rule:nonzero;stroke:none"
             d="m 0,0 -120.343,-44.86 -9.381,-139.958 127.089,47.375 z" /></g><g
           transform="translate(2932.0706,903.0303)"
           id="g524"><path
             id="path526"
             style="fill:#fef7a7;fill-opacity:1;fill-rule:nonzero;stroke:none"
             d="m 0,0 114.329,42.619 -61.15,113.666 -104.57,-38.98 z" /></g><g
           transform="translate(2387.7864,700.1368)"
           id="g528"><path
             id="path530"
             style="fill:#fef7a7;fill-opacity:1;fill-rule:nonzero;stroke:none"
             d="m 0,0 -19.75,129.099 -108.893,-40.592 12.695,-131.73 z" /></g><g
           transform="translate(3273.3245,1030.2412)"
           id="g532"><path
             id="path534"
             style="fill:#fef7a7;fill-opacity:1;fill-rule:nonzero;stroke:none"
             d="M 0,0 122.903,45.814 40.672,151.621 -74.24,108.785 Z" /></g><g
           transform="translate(2764.8811,840.7071)"
           id="g536"><path
             id="path538"
             style="fill:#fef7a7;fill-opacity:1;fill-rule:nonzero;stroke:none"
             d="M 0,0 113.079,42.152 63.491,160.129 -43.437,120.27 Z" /></g><g
           transform="translate(1337.2605,444.9912)"
           id="g540"><path
             id="path542"
             style="fill:#fef7a7;fill-opacity:1;fill-rule:nonzero;stroke:none"
             d="m 0,0 -46.587,-17.366 c 11.549,-3.821 24.099,-7.785 37.671,-11.824 z" /></g><g
           transform="translate(2680.5012,938.3936)"
           id="g544"><path
             id="path546"
             style="fill:#fef7a7;fill-opacity:1;fill-rule:nonzero;stroke:none"
             d="m 0,0 -9.034,3.952 -256.448,-95.597 23.28,-127.782 112.385,41.894 -19.951,85.124 54.171,13.807 20.999,-78.346 L 37.936,-115 Z" /></g><g
           transform="translate(3029.676,1075.876)"
           id="g548"><path
             id="path550"
             style="fill:#fef7a7;fill-opacity:1;fill-rule:nonzero;stroke:none"
             d="m 0,0 64.06,-112.581 119.795,44.656 -65.193,100.856 39.48,26.02 z" /></g><g
           transform="translate(3451.4797,1096.6523)"
           id="g552"><path
             id="path554"
             style="fill:#fef7a7;fill-opacity:1;fill-rule:nonzero;stroke:none"
             d="m 0,0 149.052,55.563 35.602,32.669 14.131,-14.13 148.192,55.241 -101.908,94.263 -28.99,-6.597 -65.308,-24.346 -78.225,-76.219 -32.275,35.028 -126.17,-47.033 z" /></g><g
           transform="translate(854.0814,902.2794)"
           id="g556"><path
             id="path558"
             style="fill:#fef7a7;fill-opacity:1;fill-rule:nonzero;stroke:none"
             d="M 0,0 -43.055,-67.95 150.49,4.196 231.173,148.809 -60.748,39.99 Z" /></g><g
           transform="translate(1125.1252,1029.0459)"
           id="g560"><path
             id="path562"
             style="fill:#fef7a7;fill-opacity:1;fill-rule:nonzero;stroke:none"
             d="m 0,0 -41.082,-78.968 c 5.244,-2.973 10.234,-5.748 15.033,-8.375 L 91.914,-43.37 C 47.816,-25.352 0,0 0,0" /></g><g
           transform="translate(716.5291,820.4922)"
           id="g564"><path
             id="path566"
             style="fill:#fef7a7;fill-opacity:1;fill-rule:nonzero;stroke:none"
             d="m 0,0 54.171,81.787 -29.332,20.62 -164.942,-61.485 25.387,-80.223 c 0,0 7.654,-5.95 22.169,-16.586 l 112.551,41.955 z" /></g><g
           transform="translate(1317.3547,1023.0704)"
           id="g568"><path
             id="path570"
             style="fill:#fef7a7;fill-opacity:1;fill-rule:nonzero;stroke:none"
             d="M 0,0 23.195,8.645 C 12.617,12.757 6.741,15.169 6.741,15.169 Z" /></g><g
           transform="translate(1451.7502,819.8389)"
           id="g572"><path
             id="path574"
             style="fill:#fef7a7;fill-opacity:1;fill-rule:nonzero;stroke:none"
             d="m 0,0 -147.124,-54.843 -49.389,-132.947 157.035,58.537 z" /></g><g
           transform="translate(1077.0466,680.1622)"
           id="g576"><path
             id="path578"
             style="fill:#fef7a7;fill-opacity:1;fill-rule:nonzero;stroke:none"
             d="m 0,0 -91.18,-33.989 c 39.931,-21.315 61,-30.682 61,-30.682 z" /></g><g
           transform="translate(1574.7053,751.1358)"
           id="g580"><path
             id="path582"
             style="fill:#fef7a7;fill-opacity:1;fill-rule:nonzero;stroke:none"
             d="m 0,0 132.846,49.521 4.252,23.603 c 1.242,0.248 25.475,-3.805 41.526,-6.539 l 120.056,44.753 -37.318,39.806 c 0,0 -59.525,10.472 -108.699,20.299 L 30.015,125.726 Z" /></g><g
           transform="translate(1934.054,885.0889)"
           id="g584"><path
             id="path586"
             style="fill:#fef7a7;fill-opacity:1;fill-rule:nonzero;stroke:none"
             d="M 0,0 28.907,10.775 0.796,11.88 Z" /></g><g
           transform="translate(1644.427,2890.5112)"
           id="g588"><path
             id="path590"
             style="fill:#fcffe4;fill-opacity:1;fill-rule:nonzero;stroke:none"
             d="m 0,0 c 59.591,-21.465 93.848,-52.867 93.848,-52.867 -135.599,29.974 -269.723,0 -269.723,0 161.244,-7.137 335.381,-79.932 335.381,-79.932 -25.692,32.829 -55.422,48.53 -55.422,48.53 62.559,1.427 136.782,-30.782 136.782,-30.782 C 147.595,0 0,0 0,0" /></g></g></g></g></svg>